<?xml version='1.0' encoding='utf-8'?>
<!DOCTYPE svg PUBLIC '-//W3C//DTD SVG 1.1//EN' 'http://www.w3.org/Graphics/SVG/1.1/DTD/svg11.dtd'>
<svg version="1.1" xmlns="http://www.w3.org/2000/svg" viewBox="0 0 512 512" xmlns:xlink="http://www.w3.org/1999/xlink" enable-background="new 0 0 512 512">
  <g>
    <path d="m497.9,166.8l-63.9-143.6c-3.3-7.4-10.6-12.1-18.6-12.1h-318.9c-8.1,0-15.4,4.7-18.6,12.1l-65.1,146c0,0.1-5,10.4 2.2,20.4l224.5,303c12.5,14.8 28.4,6.8 32.8,0l223.1-301.1c4.1-3.6 8.8-14.1 2.5-24.7zm-48.9-9.7h-109.8l20.3-105.2h42.6l46.9,105.2zm-226.9,40.8h67.6l-33.8,175-33.8-175zm-7.9-40.8l-20.3-105.2h124l-20.3,105.2h-83.4zm-104.5-105.2h42.6l20.3,105.2h-109.8l46.9-105.2zm70.8,146l38.3,198.2-146.9-198.2h108.6zm112.5,198.3l38.3-198.2h108.6l-146.9,198.2z"/>
  </g>
</svg>
